# File created by Blade
# Date/Time:  Thu Sep 25 19:26:26 2014
# Frame Rate: 120.000 fps
#------------------------------------------------------
:FULLY-SPECIFIED
:DEGREES
1408
root 3.968243 33.236624 -6.879080 10.199719 2.770906 -0.521295
Spine -10.389848 5.361081 1.042975
Head -15.772531 -4.424222 8.898024
LeftShoulder -13.087157 17.238931 29.241707
LeftArm 18.219242 -25.549617 -29.120469
LeftForeArm 14.667090 -0.000000 11.618786
LeftHand -27.007986 0.000000 -11.666449
LeftHandThumb1 -26.253704 0.000000 33.147579
RightShoulder -19.737829 14.286090 -42.240072
RightArm -8.202895 11.604741 28.172217
RightForeArm -30.101985 0.000000 13.814068
RightHand -13.637570 -0.000000 3.405064
RightHandThumb1 -24.326973 -0.000000 -32.862282
LeftUpLeg -5.259348 2.272803 2.945069
LeftLeg -0.539485 -0.000000 0.000000
LeftFoot -8.977136 2.999769 -17.900363
LeftToeBase 10.837082 -0.000000 -0.000000
RightUpLeg -5.323372 -5.616532 0.540886
RightLeg 0.616703 -0.000000 -0.000000
RightFoot -7.307975 -7.327599 3.189218
RightToeBase 0.010291 -0.000000 -0.000000
1409
root 3.981773 33.236165 -6.870847 10.214428 2.762362 -0.527731
Spine -10.391158 5.420390 1.046573
Head -15.788519 -4.509012 8.996779
LeftShoulder -13.116309 17.175179 29.291545
LeftArm 18.189435 -25.503371 -29.108834
LeftForeArm 14.691505 0.000000 11.600405
LeftHand -26.954220 0.000000 -11.623972
LeftHandThumb1 -26.253704 0.000000 33.147579
RightShoulder -19.760213 14.320628 -42.219107
RightArm -8.241918 11.617851 28.106913
RightForeArm -30.066553 -0.000000 13.816621
RightHand -13.705225 -0.000000 3.323763
RightHandThumb1 -24.326973 -0.000000 -32.862282
LeftUpLeg -5.227088 2.339940 2.914083
LeftLeg -0.604924 -0.000000 0.000000
LeftFoot -8.969716 2.982928 -17.962101
LeftToeBase 10.854453 -0.000000 -0.000000
RightUpLeg -5.339390 -5.737717 0.536492
RightLeg 0.641950 -0.000000 -0.000000
RightFoot -7.314043 -7.219473 3.194068
RightToeBase 0.046843 -0.000000 -0.000000
1410
root 3.991785 33.235940 -6.862034 10.227991 2.763696 -0.535831
Spine -10.400049 5.446340 1.042267
Head -15.761505 -4.579703 9.124231
LeftShoulder -13.123637 17.160857 29.320806
LeftArm 18.089015 -25.603743 -29.075682
LeftForeArm 14.749946 -0.000000 11.698350
LeftHand -26.971147 -0.000000 -11.787731
LeftHandThumb1 -26.253704 0.000000 33.147579
RightShoulder -19.776881 14.325353 -42.177996
RightArm -8.236673 11.630412 28.067788
RightForeArm -30.045685 -0.000000 13.822381
RightHand -13.782158 -0.000000 3.266565
RightHandThumb1 -24.326973 -0.000000 -32.862282
LeftUpLeg -5.185985 2.402921 2.905787
LeftLeg -0.689710 -0.000000 0.000000
LeftFoot -8.888686 2.918698 -17.835423
LeftToeBase 10.827582 -0.000000 -0.000000
RightUpLeg -5.348302 -5.895187 0.535779
RightLeg 0.660357 -0.000000 -0.000000
RightFoot -7.306792 -7.041520 3.229080
RightToeBase 0.016485 -0.000000 -0.000000
1411
root 4.003296 33.235234 -6.851982 10.244968 2.748665 -0.532020
Spine -10.423799 5.497699 1.016393
Head -15.715059 -4.676699 9.257881
LeftShoulder -13.124197 17.163758 29.352971
LeftArm 18.041656 -25.610424 -29.019851
LeftForeArm 14.806829 -0.000000 11.696645
LeftHand -26.963059 0.000000 -11.682225
LeftHandThumb1 -26.253704 0.000000 33.147579
RightShoulder -19.785416 14.339815 -42.165415
RightArm -8.273041 11.610116 28.046960
RightForeArm -30.035121 0.000000 13.846778
RightHand -13.782343 -0.000000 3.239375
RightHandThumb1 -24.326973 -0.000000 -32.862282
LeftUpLeg -5.131834 2.508044 2.871858
LeftLeg -0.795075 -0.000000 0.000000
LeftFoot -8.821778 2.840715 -17.867623
LeftToeBase 10.799112 -0.000000 -0.000000
RightUpLeg -5.384527 -6.072160 0.526129
RightLeg 0.730966 -0.000000 -0.000000
RightFoot -7.341228 -6.867307 3.211309
RightToeBase 0.006904 -0.000000 -0.000000
1412
root 4.014572 33.234856 -6.843200 10.273934 2.728441 -0.540099
Spine -10.470293 5.522866 1.022015
Head -15.619113 -4.740241 9.343689
LeftShoulder -13.158509 17.186584 29.350016
LeftArm 17.991424 -25.668772 -28.959033
LeftForeArm 14.770744 -0.000000 11.769861
LeftHand -27.033291 -0.000000 -11.696409
LeftHandThumb1 -26.253704 0.000000 33.147579
RightShoulder -19.763735 14.356586 -42.170437
RightArm -8.304444 11.644338 28.043150
RightForeArm -30.106534 -0.000000 13.873441
RightHand -13.667825 -0.000000 3.249696
RightHandThumb1 -24.326973 -0.000000 -32.862282
LeftUpLeg -5.086561 2.597344 2.854510
LeftLeg -0.909528 -0.000000 0.000000
LeftFoot -8.751873 2.771807 -17.829412
LeftToeBase 10.808547 -0.000000 -0.000000
RightUpLeg -5.418273 -6.162235 0.516594
RightLeg 0.765860 -0.000000 -0.000000
RightFoot -7.348740 -6.728963 3.266389
RightToeBase -0.040118 -0.000000 0.000000
1413
root 4.024062 33.234286 -6.829747 10.292813 2.730941 -0.546022
Spine -10.529773 5.537037 1.005664
Head -15.502100 -4.811398 9.475512
LeftShoulder -13.183904 17.192147 29.362551
LeftArm 17.971754 -25.588385 -28.832383
LeftForeArm 14.743112 -0.000000 11.777293
LeftHand -27.185039 -0.000000 -11.802431
LeftHandThumb1 -26.253704 0.000000 33.147579
RightShoulder -19.767002 14.306467 -42.153396
RightArm -8.291377 11.667225 28.054746
RightForeArm -30.154827 -0.000000 13.943370
RightHand -13.608411 -0.000000 3.442925
RightHandThumb1 -24.326973 -0.000000 -32.862282
LeftUpLeg -5.008575 2.618279 2.848006
LeftLeg -1.057370 -0.000000 0.000000
LeftFoot -8.688645 2.753103 -17.835156
LeftToeBase 10.811946 -0.000000 -0.000000
RightUpLeg -5.426486 -6.303172 0.515411
RightLeg 0.787284 -0.000000 -0.000000
RightFoot -7.353113 -6.587309 3.245685
RightToeBase -0.023287 -0.000000 0.000000
1414
root 4.032064 33.234022 -6.816409 10.309353 2.736747 -0.556092
Spine -10.589222 5.544786 0.998022
Head -15.367397 -4.907170 9.570867
LeftShoulder -13.211229 17.190810 29.370169
LeftArm 17.948648 -25.575274 -28.736929
LeftForeArm 14.675963 -0.000000 11.811263
LeftHand -27.314791 -0.000000 -11.722246
LeftHandThumb1 -26.253704 0.000000 33.147579
RightShoulder -19.833999 14.213024 -42.146420
RightArm -8.106208 11.657398 28.135582
RightForeArm -30.188217 0.000000 13.855869
RightHand -13.593223 -0.000000 3.385020
RightHandThumb1 -24.326973 -0.000000 -32.862282
LeftUpLeg -4.932545 2.594217 2.851677
LeftLeg -1.200585 -0.000000 0.000000
LeftFoot -8.639059 2.767093 -17.869457
LeftToeBase 10.864076 -0.000000 -0.000000
RightUpLeg -5.430317 -6.388464 0.517361
RightLeg 0.805314 -0.000000 -0.000000
RightFoot -7.342385 -6.493918 3.252625
RightToeBase -0.109513 -0.000000 0.000000
1415
root 4.039502 33.233255 -6.803172 10.343916 2.762661 -0.564272
Spine -10.676613 5.576895 0.983752
Head -15.237100 -5.065045 9.650119
LeftShoulder -13.195921 17.123812 29.383845
LeftArm 17.917770 -25.550746 -28.639604
LeftForeArm 14.660965 -0.000000 11.802059
LeftHand -27.278532 -0.000000 -11.533183
LeftHandThumb1 -26.253704 0.000000 33.147579
RightShoulder -19.879253 14.163817 -42.137247
RightArm -8.030650 11.560593 28.162781
RightForeArm -30.175377 -0.000000 13.823278
RightHand -13.832611 -0.000000 3.144969
RightHandThumb1 -24.326973 -0.000000 -32.862282
LeftUpLeg -4.885323 2.533760 2.857350
LeftLeg -1.322782 -0.000000 0.000000
LeftFoot -8.608489 2.805027 -17.906291
LeftToeBase 10.873915 -0.000000 -0.000000
RightUpLeg -5.441697 -6.454023 0.518353
RightLeg 0.810552 -0.000000 -0.000000
RightFoot -7.358462 -6.441933 3.280139
RightToeBase -0.076139 -0.000000 0.000000
1416
root 4.046605 33.232710 -6.789292 10.371766 2.787769 -0.569056
Spine -10.768962 5.579173 0.963747
Head -15.071070 -5.190611 9.737315
LeftShoulder -13.198854 17.104775 29.404772
LeftArm 17.892129 -25.605957 -28.581426
LeftForeArm 14.721308 -0.000000 11.860277
LeftHand -27.279657 -0.000000 -11.509151
LeftHandThumb1 -26.253704 0.000000 33.147579
RightShoulder -19.810371 14.195242 -42.106792
RightArm -8.135684 11.556901 28.111922
RightForeArm -30.219737 -0.000000 13.894423
RightHand -13.998854 -0.000000 3.089788
RightHandThumb1 -24.326973 -0.000000 -32.862282
LeftUpLeg -4.830936 2.419705 2.867846
LeftLeg -1.446577 -0.000000 0.000000
LeftFoot -8.581577 2.894533 -17.929455
LeftToeBase 10.851758 -0.000000 -0.000000
RightUpLeg -5.431654 -6.447307 0.511601
RightLeg 0.788087 -0.000000 -0.000000
RightFoot -7.357546 -6.450795 3.301174
RightToeBase -0.022978 -0.000000 0.000000
1417
root 4.052409 33.232244 -6.773642 10.396260 2.826282 -0.570228
Spine -10.867813 5.576808 0.935165
Head -14.887503 -5.333992 9.816470
LeftShoulder -13.277312 17.112236 29.377190
LeftArm 18.047845 -25.573413 -28.475655
LeftForeArm 14.645151 -0.000000 11.720346
LeftHand -26.881153 -0.000000 -11.442000
LeftHandThumb1 -26.253704 0.000000 33.147579
RightShoulder -19.816153 14.184193 -42.116080
RightArm -8.130834 11.562391 28.143275
RightForeArm -30.264075 0.000000 13.888637
RightHand -13.955592 -0.000000 3.046133
RightHandThumb1 -24.326973 -0.000000 -32.862282
LeftUpLeg -4.783378 2.347312 2.870747
LeftLeg -1.545778 -0.000000 0.000000
LeftFoot -8.564847 2.928865 -17.960336
LeftToeBase 10.880095 -0.000000 -0.000000
RightUpLeg -5.402103 -6.402980 0.502444
RightLeg 0.741969 -0.000000 -0.000000
RightFoot -7.354903 -6.522600 3.369266
RightToeBase -0.060630 -0.000000 0.000000
1418
root 4.061218 33.232680 -6.761547 10.441802 2.867180 -0.567316
Spine -10.981972 5.579328 0.916457
Head -14.715587 -5.487088 9.867892
LeftShoulder -13.269198 17.054764 29.395541
LeftArm 18.014938 -25.634727 -28.431068
LeftForeArm 14.768447 0.000000 11.834593
LeftHand -27.004957 -0.000000 -11.501568
LeftHandThumb1 -26.253704 0.000000 33.147579
RightShoulder -19.833225 14.189969 -42.121144
RightArm -8.131212 11.598046 28.136773
RightForeArm -30.291346 -0.000000 13.906232
RightHand -13.881271 0.000000 3.027405
RightHandThumb1 -24.326973 -0.000000 -32.862282
LeftUpLeg -4.784811 2.215364 2.865139
LeftLeg -1.599759 -0.000000 0.000000
LeftFoot -8.568609 3.042070 -17.932737
LeftToeBase 10.835956 -0.000000 -0.000000
RightUpLeg -5.403948 -6.331270 0.482089
RightLeg 0.706600 -0.000000 -0.000000
RightFoot -7.338472 -6.619464 3.408949
RightToeBase -0.109415 -0.000000 0.000000
1419
root 4.068921 33.232601 -6.744399 10.475574 2.951686 -0.553776
Spine -11.109956 5.538150 0.887226
Head -14.507331 -5.646572 9.916450
LeftShoulder -13.242042 17.001120 29.436984
LeftArm 17.991910 -25.590456 -28.365802
LeftForeArm 14.828310 -0.000000 11.852851
LeftHand -27.036737 0.000000 -11.382003
LeftHandThumb1 -26.253704 0.000000 33.147579
RightShoulder -19.847068 14.183145 -42.131463
RightArm -8.127908 11.648089 28.141008
RightForeArm -30.333597 -0.000000 13.927708
RightHand -13.806119 -0.000000 3.036121
RightHandThumb1 -24.326973 -0.000000 -32.862282
LeftUpLeg -4.772092 2.065240 2.852246
LeftLeg -1.653435 -0.000000 0.000000
LeftFoot -8.597181 3.147250 -18.003985
LeftToeBase 10.913885 -0.000000 -0.000000
RightUpLeg -5.355957 -6.296679 0.463412
RightLeg 0.620575 -0.000000 -0.000000
RightFoot -7.328896 -6.741003 3.431231
RightToeBase -0.064653 -0.000000 0.000000
